<?xml version="1.0" encoding="utf-8"?>
<!-- Generator: Adobe Illustrator 24.0.1, SVG Export Plug-In . SVG Version: 6.00 Build 0)  -->
<svg version="1.1" id="Layer_1" xmlns="http://www.w3.org/2000/svg" xmlns:xlink="http://www.w3.org/1999/xlink" x="0px" y="0px"
	 viewBox="0 0 823.6 465.4" style="enable-background:new 0 0 823.6 465.4;" xml:space="preserve">
<style type="text/css">
	.st0{fill:#534741;stroke:url(#SVGID_1_);stroke-width:0.2378;}
	.st1{fill:none;stroke:#F7931E;stroke-width:50;}
	.st2{font-family:'Museo900-Regular';}
	.st3{font-size:200px;}
	.st4{fill:none;stroke:#000000;stroke-width:28;}
	.st5{fill:#FFFFFF;}
	.st6{fill:#FF9B0C;}
	.st7{fill:#0CFF20;}
	.st8{fill:#FFCB3C;}
	.st9{fill:#0E00FF;}
	.st10{fill:#FF0C20;}
</style>
<linearGradient id="SVGID_1_" gradientUnits="userSpaceOnUse" x1="0" y1="232.6931" x2="823.6042" y2="232.6931">
	<stop  offset="0" style="stop-color:#CCE0F4"/>
	<stop  offset="6.405089e-02" style="stop-color:#C3DCF2"/>
	<stop  offset="0.1706" style="stop-color:#A9D2EE"/>
	<stop  offset="0.3066" style="stop-color:#80C2E7"/>
	<stop  offset="0.4649" style="stop-color:#47ACDE"/>
	<stop  offset="0.5674" style="stop-color:#1E9CD7"/>
	<stop  offset="0.8652" style="stop-color:#0075BE"/>
	<stop  offset="0.9944" style="stop-color:#005B97"/>
</linearGradient>
<rect x="0.1" y="0.1" class="st0" width="823.4" height="465.1"/>
<g>
	<text transform="matrix(1 0 0 1 20.5147 169.4719)"><tspan x="0" y="0" class="st1 st2 st3">Blogger</tspan><tspan x="0.8" y="227" class="st1 st2 st3">Rejig</tspan></text>
	<text transform="matrix(1 0 0 1 20.5147 169.4719)"><tspan x="0" y="0" class="st4 st2 st3">Blogger</tspan><tspan x="0.8" y="227" class="st4 st2 st3">Rejig</tspan></text>
	<text transform="matrix(1 0 0 1 20.5147 169.4719)"><tspan x="0" y="0" class="st5 st2 st3">Blogger</tspan><tspan x="0.8" y="227" class="st5 st2 st3">Rejig</tspan></text>
</g>
<g>
	<path class="st6" d="M648.6,323.5c0,0-0.3-3.3-0.5-4.9c0.9-0.4,1.7-0.9,2.5-1.5c1.4,0.7,4.1,2.1,4.1,2.1l4.7-1.1l5.3-8.2l-1.2-4.2
		c0,0-3.5-1.8-5.3-2.7c0-0.9-0.2-1.8-0.4-2.7c1.4-1.1,4.2-3.2,4.2-3.2v-4.3l-6.9-7.2h-4.8c0,0-2.3,1.8-3.4,2.6
		c-1.2-0.5-2.5-1-3.9-1.3c-0.1-1.2-0.3-3.7-0.3-3.7l-3.4-3.1l-10.5,0.8l-3.4,3.1c0,0,0.3,3.2,0.4,4.8c-1,0.5-2,1.1-2.9,1.8
		c-1.5-0.6-4.4-1.8-4.4-1.8l-4.7,1.1l-4.4,8.6l-0.2,0.6l1.4,3.6c0,0,3.4,1.4,5.2,2.1c0.1,1,0.2,2,0.5,3c-1.3,1-3.9,3-3.9,3v4.3
		l6.8,7.2c0,0,4,0.4,4.2,0.3c0.2-0.1,0.6-0.3,0.6-0.3s2.5-1.9,3.7-2.9c1.1,0.4,2.1,0.8,3.3,1.1c0.1,1.3,0.4,3.8,0.4,3.8l3.4,3.1
		l10.5-0.9L648.6,323.5z M636.3,313.4c-5.9,0-10.6-4.3-10.6-9.6c0-5.3,4.8-9.6,10.6-9.6c5.9,0,10.6,4.3,10.6,9.6
		C646.9,309.1,642.1,313.4,636.3,313.4z"/>
	<path class="st7" d="M677.8,354.6c0,0-0.3-2.5-0.4-3.7c0.7-0.3,1.3-0.7,1.9-1.1c1,0.5,3.1,1.6,3.1,1.6l3.5-0.8l4-6.2l-0.9-3.2
		c0,0-2.7-1.4-4-2.1c0-0.7-0.1-1.4-0.3-2c1.1-0.8,3.2-2.4,3.2-2.4v-3.3l-5.2-5.5H679c0,0-1.7,1.3-2.6,2c-0.9-0.4-1.9-0.7-3-1
		c-0.1-0.9-0.2-2.8-0.2-2.8l-2.6-2.3l-8,0.6l-2.6,2.3c0,0,0.2,2.4,0.3,3.6c-0.8,0.4-1.5,0.9-2.2,1.4c-1.1-0.5-3.4-1.4-3.4-1.4
		l-3.5,0.8l-3.3,6.5l-0.1,0.4l1,2.7c0,0,2.6,1.1,3.9,1.6c0.1,0.8,0.2,1.5,0.4,2.3c-1,0.8-3,2.3-3,2.3v3.3l5.2,5.5c0,0,3,0.3,3.2,0.2
		c0.2-0.1,0.5-0.2,0.5-0.2s1.9-1.4,2.8-2.2c0.8,0.3,1.6,0.6,2.5,0.8c0.1,1,0.3,2.9,0.3,2.9l2.6,2.3l7.9-0.7L677.8,354.6z
		 M668.4,346.9c-4.4,0-8-3.2-8-7.2c0-4,3.6-7.2,8-7.2c4.4,0,8,3.2,8,7.2C676.5,343.7,672.9,346.9,668.4,346.9z"/>
	<path class="st5" d="M750.9,264.5c-33.7,0-67.4,0-101.1,0c-8.5,0-8.5,11.8,0,11.8c33.7,0,67.4,0,101.1,0
		C759.4,276.3,759.4,264.5,750.9,264.5z"/>
	<path class="st5" d="M750.9,292.5c-33.7,0-14.9,0-48.6,0c-8.5,0-8.5,11.8,0,11.8c33.7,0,14.9,0,48.6,0
		C759.4,304.3,759.4,292.5,750.9,292.5z"/>
	<polygon class="st5" points="617.3,249.7 769.8,249.7 769.8,324.7 785.6,324.7 785.6,235.6 601.5,235.6 601.5,281.8 617.3,281.8 	
		"/>
	<path class="st8" d="M757.9,404.7c0-1.5-0.2-3-0.4-4.5c2.4-1.7,7.1-5.1,7.1-5.1l0.3-7.1l-10.9-12.2l-8-0.2c0,0-3.9,2.8-5.8,4.2
		c-2-0.9-4.1-1.7-6.4-2.4c-0.1-2-0.3-6.1-0.3-6.1l-5.4-5.2l-17.4,0.8l-5.8,4.9c0,0,0.3,5.3,0.4,8c-1.7,0.8-3.4,1.8-4.9,2.8
		c-2.4-1.1-7.2-3.2-7.2-3.2l-7.7,1.6l-7.8,14l-0.3,1l2.1,6c0,0,5.6,2.5,8.4,3.7c0.1,1.7,0.3,3.3,0.7,4.9c-2.2,1.6-6.7,4.8-6.7,4.8
		l-0.3,7.1l10.8,12.3c0,0,6.5,0.9,6.9,0.7c0.4-0.2,1.1-0.5,1.1-0.5s4.2-3,6.3-4.5c1.7,0.8,3.5,1.4,5.4,1.9c0.1,2.1,0.4,6.3,0.4,6.3
		l5.4,5.2l17.4-0.9l5.8-4.9c0,0-0.3-5.4-0.5-8.1c1.4-0.7,2.8-1.5,4.1-2.3c2.2,1.2,6.6,3.7,6.6,3.7l7.7-1.6l9.2-13.3l-1.8-7
		C766.4,409.5,760.7,406.3,757.9,404.7z M721.3,420.7c-9.7-0.3-17.3-7.6-16.9-16.2c0.3-8.7,8.4-15.5,18.1-15.3
		c9.7,0.3,17.3,7.6,16.9,16.3C739,414.2,730.9,421,721.3,420.7z"/>
	<path class="st9" d="M790.1,371.4c0,0-6.1-3.4-9.2-5.1c0-1.6-0.2-3.2-0.5-4.8c2.5-1.8,7.6-5.5,7.6-5.5l0.3-7.7l-11.7-13.1l-8.5-0.3
		c0,0-4.2,3-6.2,4.5c-2.2-1-4.5-1.9-6.9-2.5c-0.1-2.2-0.3-6.5-0.3-6.5l-5.8-5.6l-18.7,0.8l-6.2,5.3c0,0,0.3,5.7,0.5,8.6
		c-1.9,0.9-3.6,1.9-5.3,3c-2.6-1.2-7.8-3.5-7.8-3.5l-8.3,1.7l-8.4,15.1l-0.3,1l2.2,6.5c0,0,3.9,1.7,7,3.1l3.5-2.9l1.4-1.2l1.9-0.1
		l13.9-0.6c2.4-7.1,9.9-12.2,18.5-12c10.4,0.3,18.6,8.1,18.2,17.5c-0.1,2.5-0.8,4.9-2,7l9.8,11l1.2,1.4l-0.1,1.7l-0.2,4.5
		c2,1.1,4,2.2,4,2.2l8.3-1.7l9.9-14.3L790.1,371.4z"/>
</g>
<path class="st10" d="M642.2,415.2c0,0-0.5-4.6-0.7-6.9c1.2-0.6,2.4-1.3,3.5-2.1c1.9,1,5.8,3,5.8,3l6.6-1.5l7.4-11.6l-1.7-5.9
	c0,0-5-2.6-7.4-3.9c-0.1-1.3-0.2-2.6-0.5-3.8c2-1.5,5.9-4.5,5.9-4.5v-6.1l-9.7-10.1h-6.8c0,0-3.2,2.5-4.8,3.7
	c-1.7-0.8-3.6-1.4-5.5-1.9c-0.2-1.7-0.5-5.2-0.5-5.2l-4.8-4.3l-14.8,1.1l-4.8,4.3c0,0,0.4,4.5,0.6,6.8c-1.4,0.7-2.8,1.6-4.1,2.5
	c-2.1-0.9-6.3-2.6-6.3-2.6l-6.6,1.5l-6.2,12.2l-0.2,0.8l1.9,5.1c0,0,4.8,2,7.3,3c0.1,1.4,0.3,2.8,0.7,4.2c-1.8,1.4-5.5,4.2-5.5,4.2
	v6.1l9.6,10.2c0,0,5.6,0.6,5.9,0.4c0.3-0.1,0.9-0.4,0.9-0.4s3.5-2.7,5.3-4c1.5,0.6,3,1.1,4.6,1.5c0.2,1.8,0.5,5.4,0.5,5.4l4.8,4.3
	l14.8-1.2L642.2,415.2z M624.8,400.9c-8.2,0-14.9-6-14.9-13.4c0-7.4,6.7-13.4,14.9-13.4c8.3,0,14.9,6,14.9,13.4
	C639.8,394.9,633.1,400.9,624.8,400.9z"/>
</svg>
