<?xml version="1.0" encoding="utf-8"?>
<!-- Generator: Adobe Illustrator 24.0.1, SVG Export Plug-In . SVG Version: 6.00 Build 0)  -->
<svg version="1.1" id="Layer_1" xmlns="http://www.w3.org/2000/svg" xmlns:xlink="http://www.w3.org/1999/xlink" x="0px" y="0px"
	 viewBox="0 0 715 380" style="enable-background:new 0 0 715 380;" xml:space="preserve">
<style type="text/css">
	.st0{fill:none;stroke:#F7931E;stroke-width:52;}
	.st1{fill:none;stroke:#000000;stroke-width:27;}
	.st2{fill:#FFFFFF;}
	.st3{fill:#FF9B0C;}
	.st4{fill:#0CFF20;}
	.st5{fill:#FFCB3C;}
	.st6{fill:#0E00FF;}
	.st7{fill:#FF0C20;}
</style>
<g>
	<g>
		<path class="st0" d="M43.3,51.8h-11V26.4h53c24.2,0,41.1,10.8,41.1,31.6c0,13.5-7.8,22.3-14,25.7v0.3c13.9,4.2,19,16.6,19,27.2
			c0,26.4-22,36-46,36H55.6c-8.6,0-12.4-3.7-12.4-12.4V51.8z M85.6,73.2c7.1,0,10.3-5.4,10.3-11.2c0-5.6-3.2-10.3-10.8-10.3H73.6
			v21.5H85.6z M77.3,122h10.8c8.1,0,12-5.9,12-12.7c0-6.8-3.7-12.4-11.8-12.4H73.6v21.3C73.6,120.6,74.9,122,77.3,122z"/>
		<path class="st0" d="M149.9,54.6c0-2.4-1.4-3.7-3.7-3.7h-6.4V26.4h27.1c8.6,0,12.4,3.7,12.4,12.4v80.4c0,2.4,1.4,3.7,3.7,3.7h6.4
			v24.5h-27.1c-8.6,0-12.4-3.7-12.4-12.4V54.6z"/>
		<path class="st0" d="M246,58.2c27.6,0,49.4,18.4,49.4,45.9c0,27.2-21.8,45.3-49.2,45.3c-27.4,0-49.2-18.1-49.2-45.3
			C196.9,76.6,218.8,58.2,246,58.2z M246.2,125c10.7,0,19.8-8,19.8-21c0-13.2-9.1-21.5-19.8-21.5c-10.7,0-19.8,8.3-19.8,21.5
			C226.4,117.1,235.5,125,246.2,125z"/>
		<path class="st0" d="M343,58.2c17.8,0,25.2,10.2,25.2,10.2h0.3c0,0,0-0.5,0-1.2c0-2.4,2.7-6.9,9.3-6.9h26.4v24.5h-6.1
			c-2.2,0-3.7,1.2-3.7,3.2v51.4c0,31.8-25.4,43.5-49.2,43.5c-11.7,0-24.5-3.4-33-7.8l8.5-22.8c0,0,10.7,5.6,24.4,5.6
			c10.5,0,20.1-3.9,20.1-16.8v-1.4c0-1,0.2-3.2,0.2-3.2H365c-5.1,5.6-11.7,8.3-21.8,8.3c-26.2,0-39.3-21.5-39.3-43.8
			C303.9,78.8,316.6,58.2,343,58.2z M365.8,101.3c0-15.4-8.1-18.8-16.9-18.8c-10.3,0-15.6,7.4-15.6,17.4c0,10.8,5.1,20.5,16.8,20.5
			C357.7,120.4,365.8,116.6,365.8,101.3z"/>
		<path class="st0" d="M450.7,58.2c17.8,0,25.2,10.2,25.2,10.2h0.3c0,0,0-0.5,0-1.2c0-2.4,2.7-6.9,9.3-6.9H512v24.5h-6.1
			c-2.2,0-3.7,1.2-3.7,3.2v51.4c0,31.8-25.4,43.5-49.2,43.5c-11.7,0-24.5-3.4-33-7.8l8.5-22.8c0,0,10.7,5.6,24.4,5.6
			c10.5,0,20.1-3.9,20.1-16.8v-1.4c0-1,0.2-3.2,0.2-3.2h-0.3c-5.1,5.6-11.7,8.3-21.8,8.3c-26.2,0-39.3-21.5-39.3-43.8
			C411.7,78.8,424.3,58.2,450.7,58.2z M473.6,101.3c0-15.4-8.1-18.8-16.9-18.8c-10.3,0-15.6,7.4-15.6,17.4
			c0,10.8,5.1,20.5,16.8,20.5C465.5,120.4,473.6,116.6,473.6,101.3z"/>
		<path class="st0" d="M564.8,58.2c25.7,0,40.3,17.9,40.3,42.1c0,2.9-0.7,8.8-0.7,8.8h-55c2.2,11,11,15.9,20.3,15.9
			c12.5,0,23.2-9.1,23.2-9.1l11.7,19.6c0,0-14,13.9-37.2,13.9c-31.1,0-47.9-22.5-47.9-45.7C519.4,78.1,536.7,58.2,564.8,58.2z
			 M575.1,91.3c0-5.4-4.2-11.2-10.3-11.2c-8.5,0-12.7,4.7-14.6,11.2H575.1z"/>
		<path class="st0" d="M624,88.5c0-2.4-1.4-3.7-3.7-3.7h-6.4V60.2h25.9c8,0,12.4,3.2,12.4,11.2v4.6c0,2.7-0.3,4.4-0.3,4.4h0.3
			c3.7-11.8,14.7-21.7,27.8-21.7c1.7,0,3.4,0.3,3.4,0.3v28.8c0,0-2.4-0.5-5.9-0.5c-6.9,0-18.3,2.2-22.5,15.2
			c-1,3.2-1.5,7.1-1.5,11.8v33H624V88.5z"/>
		<path class="st0" d="M43.3,223.5h-11v-25.4h56.5c23.5,0,39.9,13.7,39.9,38.1c0,24.2-17.8,31.5-17.8,31.5v0.3c0,0,4.7,2,7.4,7.3
			l7.6,14.6c1.9,3.6,4.9,3.9,8.3,3.9h2v25.4h-16.6c-8.5,0-13.2-1.5-17.1-9l-14.2-27.2c-2-3.7-4.6-4.6-10.8-4.6h-4.1v40.8H43.3V223.5
			z M84.1,252.9c9,0,13.7-5.2,13.7-14.9c0-9.6-4.7-14.6-13.2-14.6h-11v29.4H84.1z"/>
		<path class="st0" d="M186.4,229.9c25.7,0,40.3,17.9,40.3,42.1c0,2.9-0.7,8.8-0.7,8.8h-55c2.2,11,11,15.9,20.3,15.9
			c12.5,0,23.2-9.1,23.2-9.1l11.7,19.6c0,0-14,13.9-37.2,13.9c-31.1,0-47.9-22.5-47.9-45.7C141.1,249.9,158.4,229.9,186.4,229.9z
			 M196.8,263.1c0-5.4-4.2-11.2-10.3-11.2c-8.5,0-12.7,4.7-14.6,11.2H196.8z"/>
		<path class="st0" d="M233,329.6c5.8,0,15.7-1.4,15.7-11.2v-58.2c0-2.4-1.4-3.7-3.7-3.7h-6.4V232h27.1c8.6,0,12.4,3.7,12.4,12.4v77
			c0,29.3-27.4,33-40.9,33c-4.7,0-7.8-0.5-7.8-0.5v-24.4C229.3,329.4,230.8,329.6,233,329.6z M250.6,198.1h24.5v23.7h-24.5V198.1z"
			/>
		<path class="st0" d="M302.7,260.2c0-2.4-1.4-3.7-3.7-3.7h-6.4V232h27.1c8.6,0,12.4,3.7,12.4,12.4v46.5c0,2.4,1.4,3.7,3.7,3.7h6.4
			v24.5H315c-8.6,0-12.4-3.7-12.4-12.4V260.2z M304.9,198.1h24.5v23.7h-24.5V198.1z"/>
		<path class="st0" d="M389.2,229.9c17.8,0,25.2,10.2,25.2,10.2h0.3c0,0,0-0.5,0-1.2c0-2.4,2.7-6.9,9.3-6.9h26.4v24.5h-6.1
			c-2.2,0-3.7,1.2-3.7,3.2v51.4c0,31.8-25.4,43.5-49.2,43.5c-11.7,0-24.5-3.4-33-7.8l8.5-22.8c0,0,10.7,5.6,24.4,5.6
			c10.5,0,20.1-3.9,20.1-16.8v-1.4c0-1,0.2-3.2,0.2-3.2h-0.3c-5.1,5.6-11.7,8.3-21.8,8.3c-26.2,0-39.3-21.5-39.3-43.8
			C350.1,250.6,362.8,229.9,389.2,229.9z M412,273.1c0-15.4-8.1-18.8-16.9-18.8c-10.3,0-15.6,7.4-15.6,17.4
			c0,10.8,5.1,20.5,16.8,20.5C403.9,292.2,412,288.3,412,273.1z"/>
	</g>
	<g>
		<path class="st1" d="M43.3,51.8h-11V26.4h53c24.2,0,41.1,10.8,41.1,31.6c0,13.5-7.8,22.3-14,25.7v0.3c13.9,4.2,19,16.6,19,27.2
			c0,26.4-22,36-46,36H55.6c-8.6,0-12.4-3.7-12.4-12.4V51.8z M85.6,73.2c7.1,0,10.3-5.4,10.3-11.2c0-5.6-3.2-10.3-10.8-10.3H73.6
			v21.5H85.6z M77.3,122h10.8c8.1,0,12-5.9,12-12.7c0-6.8-3.7-12.4-11.8-12.4H73.6v21.3C73.6,120.6,74.9,122,77.3,122z"/>
		<path class="st1" d="M149.9,54.6c0-2.4-1.4-3.7-3.7-3.7h-6.4V26.4h27.1c8.6,0,12.4,3.7,12.4,12.4v80.4c0,2.4,1.4,3.7,3.7,3.7h6.4
			v24.5h-27.1c-8.6,0-12.4-3.7-12.4-12.4V54.6z"/>
		<path class="st1" d="M246,58.2c27.6,0,49.4,18.4,49.4,45.9c0,27.2-21.8,45.3-49.2,45.3c-27.4,0-49.2-18.1-49.2-45.3
			C196.9,76.6,218.8,58.2,246,58.2z M246.2,125c10.7,0,19.8-8,19.8-21c0-13.2-9.1-21.5-19.8-21.5c-10.7,0-19.8,8.3-19.8,21.5
			C226.4,117.1,235.5,125,246.2,125z"/>
		<path class="st1" d="M343,58.2c17.8,0,25.2,10.2,25.2,10.2h0.3c0,0,0-0.5,0-1.2c0-2.4,2.7-6.9,9.3-6.9h26.4v24.5h-6.1
			c-2.2,0-3.7,1.2-3.7,3.2v51.4c0,31.8-25.4,43.5-49.2,43.5c-11.7,0-24.5-3.4-33-7.8l8.5-22.8c0,0,10.7,5.6,24.4,5.6
			c10.5,0,20.1-3.9,20.1-16.8v-1.4c0-1,0.2-3.2,0.2-3.2H365c-5.1,5.6-11.7,8.3-21.8,8.3c-26.2,0-39.3-21.5-39.3-43.8
			C303.9,78.8,316.6,58.2,343,58.2z M365.8,101.3c0-15.4-8.1-18.8-16.9-18.8c-10.3,0-15.6,7.4-15.6,17.4c0,10.8,5.1,20.5,16.8,20.5
			C357.7,120.4,365.8,116.6,365.8,101.3z"/>
		<path class="st1" d="M450.7,58.2c17.8,0,25.2,10.2,25.2,10.2h0.3c0,0,0-0.5,0-1.2c0-2.4,2.7-6.9,9.3-6.9H512v24.5h-6.1
			c-2.2,0-3.7,1.2-3.7,3.2v51.4c0,31.8-25.4,43.5-49.2,43.5c-11.7,0-24.5-3.4-33-7.8l8.5-22.8c0,0,10.7,5.6,24.4,5.6
			c10.5,0,20.1-3.9,20.1-16.8v-1.4c0-1,0.2-3.2,0.2-3.2h-0.3c-5.1,5.6-11.7,8.3-21.8,8.3c-26.2,0-39.3-21.5-39.3-43.8
			C411.7,78.8,424.3,58.2,450.7,58.2z M473.6,101.3c0-15.4-8.1-18.8-16.9-18.8c-10.3,0-15.6,7.4-15.6,17.4
			c0,10.8,5.1,20.5,16.8,20.5C465.5,120.4,473.6,116.6,473.6,101.3z"/>
		<path class="st1" d="M564.8,58.2c25.7,0,40.3,17.9,40.3,42.1c0,2.9-0.7,8.8-0.7,8.8h-55c2.2,11,11,15.9,20.3,15.9
			c12.5,0,23.2-9.1,23.2-9.1l11.7,19.6c0,0-14,13.9-37.2,13.9c-31.1,0-47.9-22.5-47.9-45.7C519.4,78.1,536.7,58.2,564.8,58.2z
			 M575.1,91.3c0-5.4-4.2-11.2-10.3-11.2c-8.5,0-12.7,4.7-14.6,11.2H575.1z"/>
		<path class="st1" d="M624,88.5c0-2.4-1.4-3.7-3.7-3.7h-6.4V60.2h25.9c8,0,12.4,3.2,12.4,11.2v4.6c0,2.7-0.3,4.4-0.3,4.4h0.3
			c3.7-11.8,14.7-21.7,27.8-21.7c1.7,0,3.4,0.3,3.4,0.3v28.8c0,0-2.4-0.5-5.9-0.5c-6.9,0-18.3,2.2-22.5,15.2
			c-1,3.2-1.5,7.1-1.5,11.8v33H624V88.5z"/>
		<path class="st1" d="M43.3,223.5h-11v-25.4h56.5c23.5,0,39.9,13.7,39.9,38.1c0,24.2-17.8,31.5-17.8,31.5v0.3c0,0,4.7,2,7.4,7.3
			l7.6,14.6c1.9,3.6,4.9,3.9,8.3,3.9h2v25.4h-16.6c-8.5,0-13.2-1.5-17.1-9l-14.2-27.2c-2-3.7-4.6-4.6-10.8-4.6h-4.1v40.8H43.3V223.5
			z M84.1,252.9c9,0,13.7-5.2,13.7-14.9c0-9.6-4.7-14.6-13.2-14.6h-11v29.4H84.1z"/>
		<path class="st1" d="M186.4,229.9c25.7,0,40.3,17.9,40.3,42.1c0,2.9-0.7,8.8-0.7,8.8h-55c2.2,11,11,15.9,20.3,15.9
			c12.5,0,23.2-9.1,23.2-9.1l11.7,19.6c0,0-14,13.9-37.2,13.9c-31.1,0-47.9-22.5-47.9-45.7C141.1,249.9,158.4,229.9,186.4,229.9z
			 M196.8,263.1c0-5.4-4.2-11.2-10.3-11.2c-8.5,0-12.7,4.7-14.6,11.2H196.8z"/>
		<path class="st1" d="M233,329.6c5.8,0,15.7-1.4,15.7-11.2v-58.2c0-2.4-1.4-3.7-3.7-3.7h-6.4V232h27.1c8.6,0,12.4,3.7,12.4,12.4v77
			c0,29.3-27.4,33-40.9,33c-4.7,0-7.8-0.5-7.8-0.5v-24.4C229.3,329.4,230.8,329.6,233,329.6z M250.6,198.1h24.5v23.7h-24.5V198.1z"
			/>
		<path class="st1" d="M302.7,260.2c0-2.4-1.4-3.7-3.7-3.7h-6.4V232h27.1c8.6,0,12.4,3.7,12.4,12.4v46.5c0,2.4,1.4,3.7,3.7,3.7h6.4
			v24.5H315c-8.6,0-12.4-3.7-12.4-12.4V260.2z M304.9,198.1h24.5v23.7h-24.5V198.1z"/>
		<path class="st1" d="M389.2,229.9c17.8,0,25.2,10.2,25.2,10.2h0.3c0,0,0-0.5,0-1.2c0-2.4,2.7-6.9,9.3-6.9h26.4v24.5h-6.1
			c-2.2,0-3.7,1.2-3.7,3.2v51.4c0,31.8-25.4,43.5-49.2,43.5c-11.7,0-24.5-3.4-33-7.8l8.5-22.8c0,0,10.7,5.6,24.4,5.6
			c10.5,0,20.1-3.9,20.1-16.8v-1.4c0-1,0.2-3.2,0.2-3.2h-0.3c-5.1,5.6-11.7,8.3-21.8,8.3c-26.2,0-39.3-21.5-39.3-43.8
			C350.1,250.6,362.8,229.9,389.2,229.9z M412,273.1c0-15.4-8.1-18.8-16.9-18.8c-10.3,0-15.6,7.4-15.6,17.4
			c0,10.8,5.1,20.5,16.8,20.5C403.9,292.2,412,288.3,412,273.1z"/>
	</g>
	<g>
		<path d="M43.3,51.8h-11V26.4h53c24.2,0,41.1,10.8,41.1,31.6c0,13.5-7.8,22.3-14,25.7v0.3c13.9,4.2,19,16.6,19,27.2
			c0,26.4-22,36-46,36H55.6c-8.6,0-12.4-3.7-12.4-12.4V51.8z M85.6,73.2c7.1,0,10.3-5.4,10.3-11.2c0-5.6-3.2-10.3-10.8-10.3H73.6
			v21.5H85.6z M77.3,122h10.8c8.1,0,12-5.9,12-12.7c0-6.8-3.7-12.4-11.8-12.4H73.6v21.3C73.6,120.6,74.9,122,77.3,122z"/>
		<path d="M149.9,54.6c0-2.4-1.4-3.7-3.7-3.7h-6.4V26.4h27.1c8.6,0,12.4,3.7,12.4,12.4v80.4c0,2.4,1.4,3.7,3.7,3.7h6.4v24.5h-27.1
			c-8.6,0-12.4-3.7-12.4-12.4V54.6z"/>
		<path d="M246,58.2c27.6,0,49.4,18.4,49.4,45.9c0,27.2-21.8,45.3-49.2,45.3c-27.4,0-49.2-18.1-49.2-45.3
			C196.9,76.6,218.8,58.2,246,58.2z M246.2,125c10.7,0,19.8-8,19.8-21c0-13.2-9.1-21.5-19.8-21.5c-10.7,0-19.8,8.3-19.8,21.5
			C226.4,117.1,235.5,125,246.2,125z"/>
		<path d="M343,58.2c17.8,0,25.2,10.2,25.2,10.2h0.3c0,0,0-0.5,0-1.2c0-2.4,2.7-6.9,9.3-6.9h26.4v24.5h-6.1c-2.2,0-3.7,1.2-3.7,3.2
			v51.4c0,31.8-25.4,43.5-49.2,43.5c-11.7,0-24.5-3.4-33-7.8l8.5-22.8c0,0,10.7,5.6,24.4,5.6c10.5,0,20.1-3.9,20.1-16.8v-1.4
			c0-1,0.2-3.2,0.2-3.2H365c-5.1,5.6-11.7,8.3-21.8,8.3c-26.2,0-39.3-21.5-39.3-43.8C303.9,78.8,316.6,58.2,343,58.2z M365.8,101.3
			c0-15.4-8.1-18.8-16.9-18.8c-10.3,0-15.6,7.4-15.6,17.4c0,10.8,5.1,20.5,16.8,20.5C357.7,120.4,365.8,116.6,365.8,101.3z"/>
		<path d="M450.7,58.2c17.8,0,25.2,10.2,25.2,10.2h0.3c0,0,0-0.5,0-1.2c0-2.4,2.7-6.9,9.3-6.9H512v24.5h-6.1c-2.2,0-3.7,1.2-3.7,3.2
			v51.4c0,31.8-25.4,43.5-49.2,43.5c-11.7,0-24.5-3.4-33-7.8l8.5-22.8c0,0,10.7,5.6,24.4,5.6c10.5,0,20.1-3.9,20.1-16.8v-1.4
			c0-1,0.2-3.2,0.2-3.2h-0.3c-5.1,5.6-11.7,8.3-21.8,8.3c-26.2,0-39.3-21.5-39.3-43.8C411.7,78.8,424.3,58.2,450.7,58.2z
			 M473.6,101.3c0-15.4-8.1-18.8-16.9-18.8c-10.3,0-15.6,7.4-15.6,17.4c0,10.8,5.1,20.5,16.8,20.5
			C465.5,120.4,473.6,116.6,473.6,101.3z"/>
		<path d="M564.8,58.2c25.7,0,40.3,17.9,40.3,42.1c0,2.9-0.7,8.8-0.7,8.8h-55c2.2,11,11,15.9,20.3,15.9c12.5,0,23.2-9.1,23.2-9.1
			l11.7,19.6c0,0-14,13.9-37.2,13.9c-31.1,0-47.9-22.5-47.9-45.7C519.4,78.1,536.7,58.2,564.8,58.2z M575.1,91.3
			c0-5.4-4.2-11.2-10.3-11.2c-8.5,0-12.7,4.7-14.6,11.2H575.1z"/>
		<path d="M624,88.5c0-2.4-1.4-3.7-3.7-3.7h-6.4V60.2h25.9c8,0,12.4,3.2,12.4,11.2v4.6c0,2.7-0.3,4.4-0.3,4.4h0.3
			c3.7-11.8,14.7-21.7,27.8-21.7c1.7,0,3.4,0.3,3.4,0.3v28.8c0,0-2.4-0.5-5.9-0.5c-6.9,0-18.3,2.2-22.5,15.2
			c-1,3.2-1.5,7.1-1.5,11.8v33H624V88.5z"/>
		<path d="M43.3,223.5h-11v-25.4h56.5c23.5,0,39.9,13.7,39.9,38.1c0,24.2-17.8,31.5-17.8,31.5v0.3c0,0,4.7,2,7.4,7.3l7.6,14.6
			c1.9,3.6,4.9,3.9,8.3,3.9h2v25.4h-16.6c-8.5,0-13.2-1.5-17.1-9l-14.2-27.2c-2-3.7-4.6-4.6-10.8-4.6h-4.1v40.8H43.3V223.5z
			 M84.1,252.9c9,0,13.7-5.2,13.7-14.9c0-9.6-4.7-14.6-13.2-14.6h-11v29.4H84.1z"/>
		<path d="M186.4,229.9c25.7,0,40.3,17.9,40.3,42.1c0,2.9-0.7,8.8-0.7,8.8h-55c2.2,11,11,15.9,20.3,15.9c12.5,0,23.2-9.1,23.2-9.1
			l11.7,19.6c0,0-14,13.9-37.2,13.9c-31.1,0-47.9-22.5-47.9-45.7C141.1,249.9,158.4,229.9,186.4,229.9z M196.8,263.1
			c0-5.4-4.2-11.2-10.3-11.2c-8.5,0-12.7,4.7-14.6,11.2H196.8z"/>
		<path d="M233,329.6c5.8,0,15.7-1.4,15.7-11.2v-58.2c0-2.4-1.4-3.7-3.7-3.7h-6.4V232h27.1c8.6,0,12.4,3.7,12.4,12.4v77
			c0,29.3-27.4,33-40.9,33c-4.7,0-7.8-0.5-7.8-0.5v-24.4C229.3,329.4,230.8,329.6,233,329.6z M250.6,198.1h24.5v23.7h-24.5V198.1z"
			/>
		<path d="M302.7,260.2c0-2.4-1.4-3.7-3.7-3.7h-6.4V232h27.1c8.6,0,12.4,3.7,12.4,12.4v46.5c0,2.4,1.4,3.7,3.7,3.7h6.4v24.5H315
			c-8.6,0-12.4-3.7-12.4-12.4V260.2z M304.9,198.1h24.5v23.7h-24.5V198.1z"/>
		<path d="M389.2,229.9c17.8,0,25.2,10.2,25.2,10.2h0.3c0,0,0-0.5,0-1.2c0-2.4,2.7-6.9,9.3-6.9h26.4v24.5h-6.1
			c-2.2,0-3.7,1.2-3.7,3.2v51.4c0,31.8-25.4,43.5-49.2,43.5c-11.7,0-24.5-3.4-33-7.8l8.5-22.8c0,0,10.7,5.6,24.4,5.6
			c10.5,0,20.1-3.9,20.1-16.8v-1.4c0-1,0.2-3.2,0.2-3.2h-0.3c-5.1,5.6-11.7,8.3-21.8,8.3c-26.2,0-39.3-21.5-39.3-43.8
			C350.1,250.6,362.8,229.9,389.2,229.9z M412,273.1c0-15.4-8.1-18.8-16.9-18.8c-10.3,0-15.6,7.4-15.6,17.4
			c0,10.8,5.1,20.5,16.8,20.5C403.9,292.2,412,288.3,412,273.1z"/>
	</g>
	<g>
		<path class="st2" d="M43.3,51.8h-11V26.4h53c24.2,0,41.1,10.8,41.1,31.6c0,13.5-7.8,22.3-14,25.7v0.3c13.9,4.2,19,16.6,19,27.2
			c0,26.4-22,36-46,36H55.6c-8.6,0-12.4-3.7-12.4-12.4V51.8z M85.6,73.2c7.1,0,10.3-5.4,10.3-11.2c0-5.6-3.2-10.3-10.8-10.3H73.6
			v21.5H85.6z M77.3,122h10.8c8.1,0,12-5.9,12-12.7c0-6.8-3.7-12.4-11.8-12.4H73.6v21.3C73.6,120.6,74.9,122,77.3,122z"/>
		<path class="st2" d="M149.9,54.6c0-2.4-1.4-3.7-3.7-3.7h-6.4V26.4h27.1c8.6,0,12.4,3.7,12.4,12.4v80.4c0,2.4,1.4,3.7,3.7,3.7h6.4
			v24.5h-27.1c-8.6,0-12.4-3.7-12.4-12.4V54.6z"/>
		<path class="st2" d="M246,58.2c27.6,0,49.4,18.4,49.4,45.9c0,27.2-21.8,45.3-49.2,45.3c-27.4,0-49.2-18.1-49.2-45.3
			C196.9,76.6,218.8,58.2,246,58.2z M246.2,125c10.7,0,19.8-8,19.8-21c0-13.2-9.1-21.5-19.8-21.5c-10.7,0-19.8,8.3-19.8,21.5
			C226.4,117.1,235.5,125,246.2,125z"/>
		<path class="st2" d="M343,58.2c17.8,0,25.2,10.2,25.2,10.2h0.3c0,0,0-0.5,0-1.2c0-2.4,2.7-6.9,9.3-6.9h26.4v24.5h-6.1
			c-2.2,0-3.7,1.2-3.7,3.2v51.4c0,31.8-25.4,43.5-49.2,43.5c-11.7,0-24.5-3.4-33-7.8l8.5-22.8c0,0,10.7,5.6,24.4,5.6
			c10.5,0,20.1-3.9,20.1-16.8v-1.4c0-1,0.2-3.2,0.2-3.2H365c-5.1,5.6-11.7,8.3-21.8,8.3c-26.2,0-39.3-21.5-39.3-43.8
			C303.9,78.8,316.6,58.2,343,58.2z M365.8,101.3c0-15.4-8.1-18.8-16.9-18.8c-10.3,0-15.6,7.4-15.6,17.4c0,10.8,5.1,20.5,16.8,20.5
			C357.7,120.4,365.8,116.6,365.8,101.3z"/>
		<path class="st2" d="M450.7,58.2c17.8,0,25.2,10.2,25.2,10.2h0.3c0,0,0-0.5,0-1.2c0-2.4,2.7-6.9,9.3-6.9H512v24.5h-6.1
			c-2.2,0-3.7,1.2-3.7,3.2v51.4c0,31.8-25.4,43.5-49.2,43.5c-11.7,0-24.5-3.4-33-7.8l8.5-22.8c0,0,10.7,5.6,24.4,5.6
			c10.5,0,20.1-3.9,20.1-16.8v-1.4c0-1,0.2-3.2,0.2-3.2h-0.3c-5.1,5.6-11.7,8.3-21.8,8.3c-26.2,0-39.3-21.5-39.3-43.8
			C411.7,78.8,424.3,58.2,450.7,58.2z M473.6,101.3c0-15.4-8.1-18.8-16.9-18.8c-10.3,0-15.6,7.4-15.6,17.4
			c0,10.8,5.1,20.5,16.8,20.5C465.5,120.4,473.6,116.6,473.6,101.3z"/>
		<path class="st2" d="M564.8,58.2c25.7,0,40.3,17.9,40.3,42.1c0,2.9-0.7,8.8-0.7,8.8h-55c2.2,11,11,15.9,20.3,15.9
			c12.5,0,23.2-9.1,23.2-9.1l11.7,19.6c0,0-14,13.9-37.2,13.9c-31.1,0-47.9-22.5-47.9-45.7C519.4,78.1,536.7,58.2,564.8,58.2z
			 M575.1,91.3c0-5.4-4.2-11.2-10.3-11.2c-8.5,0-12.7,4.7-14.6,11.2H575.1z"/>
		<path class="st2" d="M624,88.5c0-2.4-1.4-3.7-3.7-3.7h-6.4V60.2h25.9c8,0,12.4,3.2,12.4,11.2v4.6c0,2.7-0.3,4.4-0.3,4.4h0.3
			c3.7-11.8,14.7-21.7,27.8-21.7c1.7,0,3.4,0.3,3.4,0.3v28.8c0,0-2.4-0.5-5.9-0.5c-6.9,0-18.3,2.2-22.5,15.2
			c-1,3.2-1.5,7.1-1.5,11.8v33H624V88.5z"/>
		<path class="st2" d="M43.3,223.5h-11v-25.4h56.5c23.5,0,39.9,13.7,39.9,38.1c0,24.2-17.8,31.5-17.8,31.5v0.3c0,0,4.7,2,7.4,7.3
			l7.6,14.6c1.9,3.6,4.9,3.9,8.3,3.9h2v25.4h-16.6c-8.5,0-13.2-1.5-17.1-9l-14.2-27.2c-2-3.7-4.6-4.6-10.8-4.6h-4.1v40.8H43.3V223.5
			z M84.1,252.9c9,0,13.7-5.2,13.7-14.9c0-9.6-4.7-14.6-13.2-14.6h-11v29.4H84.1z"/>
		<path class="st2" d="M186.4,229.9c25.7,0,40.3,17.9,40.3,42.1c0,2.9-0.7,8.8-0.7,8.8h-55c2.2,11,11,15.9,20.3,15.9
			c12.5,0,23.2-9.1,23.2-9.1l11.7,19.6c0,0-14,13.9-37.2,13.9c-31.1,0-47.9-22.5-47.9-45.7C141.1,249.9,158.4,229.9,186.4,229.9z
			 M196.8,263.1c0-5.4-4.2-11.2-10.3-11.2c-8.5,0-12.7,4.7-14.6,11.2H196.8z"/>
		<path class="st2" d="M233,329.6c5.8,0,15.7-1.4,15.7-11.2v-58.2c0-2.4-1.4-3.7-3.7-3.7h-6.4V232h27.1c8.6,0,12.4,3.7,12.4,12.4v77
			c0,29.3-27.4,33-40.9,33c-4.7,0-7.8-0.5-7.8-0.5v-24.4C229.3,329.4,230.8,329.6,233,329.6z M250.6,198.1h24.5v23.7h-24.5V198.1z"
			/>
		<path class="st2" d="M302.7,260.2c0-2.4-1.4-3.7-3.7-3.7h-6.4V232h27.1c8.6,0,12.4,3.7,12.4,12.4v46.5c0,2.4,1.4,3.7,3.7,3.7h6.4
			v24.5H315c-8.6,0-12.4-3.7-12.4-12.4V260.2z M304.9,198.1h24.5v23.7h-24.5V198.1z"/>
		<path class="st2" d="M389.2,229.9c17.8,0,25.2,10.2,25.2,10.2h0.3c0,0,0-0.5,0-1.2c0-2.4,2.7-6.9,9.3-6.9h26.4v24.5h-6.1
			c-2.2,0-3.7,1.2-3.7,3.2v51.4c0,31.8-25.4,43.5-49.2,43.5c-11.7,0-24.5-3.4-33-7.8l8.5-22.8c0,0,10.7,5.6,24.4,5.6
			c10.5,0,20.1-3.9,20.1-16.8v-1.4c0-1,0.2-3.2,0.2-3.2h-0.3c-5.1,5.6-11.7,8.3-21.8,8.3c-26.2,0-39.3-21.5-39.3-43.8
			C350.1,250.6,362.8,229.9,389.2,229.9z M412,273.1c0-15.4-8.1-18.8-16.9-18.8c-10.3,0-15.6,7.4-15.6,17.4
			c0,10.8,5.1,20.5,16.8,20.5C403.9,292.2,412,288.3,412,273.1z"/>
	</g>
</g>
<path class="st3" d="M555.1,267.8c0,0-0.3-2.8-0.4-4.2c0.7-0.4,1.4-0.8,2.1-1.2c1.2,0.6,3.5,1.8,3.5,1.8l3.9-0.9l4.5-7l-1-3.5
	c0,0-3-1.6-4.5-2.3c0-0.8-0.1-1.5-0.3-2.3c1.2-0.9,3.5-2.7,3.5-2.7v-3.7l-5.8-6.1h-4.1c0,0-1.9,1.5-2.9,2.2c-1-0.5-2.2-0.8-3.3-1.1
	c-0.1-1-0.3-3.1-0.3-3.1l-2.9-2.6l-8.9,0.6l-2.9,2.6c0,0,0.2,2.7,0.4,4.1c-0.9,0.4-1.7,0.9-2.5,1.5c-1.2-0.5-3.8-1.5-3.8-1.5
	l-3.9,0.9l-3.7,7.3l-0.1,0.5l1.2,3c0,0,2.9,1.2,4.4,1.8c0.1,0.9,0.2,1.7,0.4,2.5c-1.1,0.8-3.3,2.5-3.3,2.5v3.7l5.8,6.1
	c0,0,3.4,0.4,3.5,0.3c0.2-0.1,0.5-0.3,0.5-0.3s2.1-1.6,3.2-2.4c0.9,0.4,1.8,0.7,2.8,0.9c0.1,1.1,0.3,3.2,0.3,3.2l2.9,2.6l8.9-0.7
	L555.1,267.8z M544.7,259.2c-5,0-9-3.6-9-8.1c0-4.5,4-8.1,9-8.1c5,0,9,3.6,9,8.1C553.6,255.6,549.6,259.2,544.7,259.2z"/>
<path class="st4" d="M579.8,294.1c0,0-0.2-2.1-0.3-3.2c0.6-0.3,1.1-0.6,1.6-0.9c0.9,0.4,2.6,1.4,2.6,1.4l3-0.7l3.4-5.3l-0.8-2.7
	c0,0-2.2-1.2-3.4-1.8c0-0.6-0.1-1.2-0.2-1.7c0.9-0.7,2.7-2.1,2.7-2.1v-2.8l-4.4-4.6h-3.1c0,0-1.5,1.1-2.2,1.7
	c-0.8-0.3-1.6-0.6-2.5-0.8c-0.1-0.8-0.2-2.3-0.2-2.3l-2.2-2l-6.7,0.5l-2.2,2c0,0,0.2,2.1,0.3,3.1c-0.7,0.3-1.3,0.7-1.9,1.1
	c-0.9-0.4-2.8-1.2-2.8-1.2l-3,0.7l-2.8,5.5l-0.1,0.4l0.9,2.3c0,0,2.2,0.9,3.3,1.4c0,0.7,0.2,1.3,0.3,1.9c-0.8,0.6-2.5,1.9-2.5,1.9
	v2.8l4.4,4.6c0,0,2.5,0.3,2.7,0.2s0.4-0.2,0.4-0.2s1.6-1.2,2.4-1.8c0.7,0.3,1.4,0.5,2.1,0.7c0.1,0.8,0.2,2.4,0.2,2.4l2.2,2l6.7-0.6
	L579.8,294.1z M571.9,287.6c-3.7,0-6.8-2.7-6.8-6.1c0-3.4,3-6.1,6.8-6.1c3.8,0,6.8,2.7,6.8,6.1S575.6,287.6,571.9,287.6z"/>
<path d="M641.7,217.9c-28.5,0-57,0-85.5,0c-7.2,0-7.2,10,0,10c28.5,0,57,0,85.5,0C648.8,227.9,648.8,217.9,641.7,217.9z"/>
<path d="M641.7,241.5c-28.5,0-12.6,0-41.1,0c-7.2,0-7.2,10,0,10c28.5,0,12.6,0,41.1,0C648.8,251.5,648.8,241.5,641.7,241.5z"/>
<polygon points="528.6,205.4 657.7,205.4 657.7,268.8 671,268.8 671,193.4 515.3,193.4 515.3,232.5 528.6,232.5 "/>
<path class="st5" d="M647.5,336.5c0-1.3-0.1-2.5-0.4-3.8c2-1.4,6-4.3,6-4.3l0.2-6l-9.2-10.3l-6.7-0.2c0,0-3.3,2.4-4.9,3.5
	c-1.7-0.8-3.5-1.5-5.4-2c-0.1-1.7-0.3-5.1-0.3-5.1l-4.6-4.4l-14.7,0.6l-4.9,4.1c0,0,0.2,4.5,0.4,6.7c-1.5,0.7-2.8,1.5-4.1,2.4
	c-2-0.9-6.1-2.7-6.1-2.7l-6.6,1.3l-6.6,11.9l-0.2,0.8l1.7,5.1c0,0,4.7,2.1,7.1,3.2c0.1,1.4,0.2,2.8,0.6,4.2c-1.9,1.3-5.6,4-5.6,4
	l-0.2,6l9.2,10.4c0,0,5.5,0.8,5.8,0.6c0.3-0.1,0.9-0.4,0.9-0.4s3.6-2.6,5.4-3.8c1.4,0.6,3,1.2,4.5,1.6c0.1,1.8,0.3,5.3,0.3,5.3
	l4.6,4.4l14.7-0.8l4.9-4.1c0,0-0.3-4.6-0.4-6.9c1.2-0.6,2.4-1.2,3.5-1.9c1.9,1,5.6,3.1,5.6,3.1l6.6-1.4l7.8-11.2l-1.5-5.9
	C654.8,340.5,649.9,337.9,647.5,336.5z M616.6,350c-8.2-0.2-14.6-6.4-14.3-13.7c0.3-7.4,7.1-13.1,15.3-12.9
	c8.2,0.2,14.6,6.4,14.3,13.8C631.6,344.5,624.8,350.3,616.6,350z"/>
<path class="st6" d="M674.8,308.3c0,0-5.2-2.9-7.8-4.3c0-1.4-0.1-2.7-0.4-4.1c2.2-1.6,6.5-4.7,6.5-4.7l0.2-6.5l-9.9-11.1l-7.2-0.2
	c0,0-3.5,2.5-5.3,3.8c-1.8-0.9-3.8-1.6-5.8-2.2c-0.1-1.8-0.3-5.5-0.3-5.5l-4.9-4.7l-15.8,0.7l-5.3,4.4c0,0,0.3,4.8,0.4,7.2
	c-1.6,0.7-3.1,1.6-4.5,2.6c-2.2-1-6.6-2.9-6.6-2.9l-7,1.5l-7.1,12.8l-0.3,0.9l1.9,5.5c0,0,3.3,1.5,5.9,2.6l2.9-2.5l1.2-1l1.6-0.1
	l11.8-0.5c2.1-6,8.3-10.3,15.7-10.1c8.8,0.3,15.7,6.9,15.4,14.8c-0.1,2.1-0.7,4.1-1.7,5.9l8.3,9.3l1,1.2l-0.1,1.5l-0.1,3.8
	c1.7,1,3.4,1.9,3.4,1.9l7-1.5l8.4-12.1L674.8,308.3z"/>
<path class="st7" d="M549.7,345.4c0,0-0.4-3.9-0.6-5.9c1-0.5,2-1.1,2.9-1.7c1.6,0.8,4.9,2.5,4.9,2.5l5.5-1.3l6.3-9.8l-1.5-5
	c0,0-4.2-2.2-6.3-3.3c-0.1-1.1-0.2-2.2-0.4-3.2c1.7-1.3,5-3.8,5-3.8v-5.2l-8.2-8.6h-5.7c0,0-2.7,2.1-4.1,3.1c-1.5-0.6-3-1.2-4.7-1.6
	c-0.1-1.5-0.4-4.4-0.4-4.4l-4.1-3.6l-12.5,0.9l-4.1,3.6c0,0,0.3,3.8,0.5,5.7c-1.2,0.6-2.4,1.3-3.5,2.1c-1.8-0.7-5.3-2.2-5.3-2.2
	l-5.5,1.3l-5.2,10.3l-0.2,0.7l1.6,4.3c0,0,4.1,1.7,6.1,2.5c0.1,1.2,0.3,2.4,0.6,3.5c-1.6,1.2-4.7,3.6-4.7,3.6v5.2l8.1,8.6
	c0,0,4.7,0.5,5,0.4c0.3-0.1,0.8-0.4,0.8-0.4s3-2.3,4.5-3.4c1.3,0.5,2.6,0.9,3.9,1.3c0.2,1.5,0.5,4.6,0.5,4.6l4.1,3.6l12.5-1
	L549.7,345.4z M535,333.3c-7,0-12.6-5.1-12.6-11.4c0-6.3,5.7-11.4,12.6-11.4c7,0,12.6,5.1,12.6,11.4
	C547.6,328.2,542,333.3,535,333.3z"/>
</svg>
